#!OML:ASF I:\Actors\actors\Patient Classification 2\Patient 1\Session 1\actor1.ASF
:FULLY-SPECIFIED
:DEGREES
508
root -0.590422 18.9073 5.01311 16.9248 -4.88142 2.12358
lowerback 27.3998 -3.53172 4.22034
upperback 3.1591 -2.82145 3.79276
thorax -11.6818 -1.38296 2.924
lowerneck -5.65598 -2.75729 -2.96126
upperneck -1.62925 -3.51951 1.4855
head 0.51761 -1.7419 0.871909
rclavicle -7.95139e-016 -1.59028e-014
rhumerus 13.2035 10.8834 -43.441
rradius 148.532
rwrist -24.6086
rhand -3.71073 -47.5383
rfingers 7.12502
rthumb 22.0317 -76.3033
lclavicle -7.95139e-016 -1.59028e-014
lhumerus 19.7048 -34.5395 52.9121
lradius 139.3
lwrist 11.1244
lhand -14.5291 -27.4181
lfingers 7.12502
lthumb 11.6189 2.23977
rfemur -16.2593 8.16727 8.31164
rtibia 5.08485
rfoot -17.4008 -16.5301
rtoes -7.82189
lfemur -27.2516 8.34185 -18.7313
ltibia 24.8704
lfoot -14.5474 8.59163
ltoes -55.1386
509
root -0.59123 18.9099 5.00902 16.9197 -4.85357 2.12077
lowerback 27.5154 -3.56908 4.177
upperback 3.13744 -2.86935 3.81556
thorax -11.7633 -1.40117 3.00157
lowerneck -5.75653 -2.74001 -2.93564
upperneck -1.55723 -3.49482 1.4077
head 0.553983 -1.73041 0.842373
rclavicle -3.33958e-014 8.74653e-015
rhumerus 13.4713 10.7382 -43.7125
rradius 148.618
rwrist -24.9133
rhand -3.73839 -47.4473
rfingers 7.12502
rthumb 22.0052 -76.2155
lclavicle -3.33958e-014 8.74653e-015
lhumerus 19.6228 -34.8495 52.3435
lradius 139.243
lwrist 10.5313
lhand -14.503 -27.7155
lfingers 7.12502
lthumb 11.6441 1.94091
rfemur -16.2673 8.14544 8.33152
rtibia 5.10428
rfoot -17.3647 -16.563
rtoes -7.9632
lfemur -27.2467 8.32161 -18.7253
ltibia 24.8417
lfoot -14.5785 8.58928
ltoes -55.1328
510
root -0.589005 18.9117 5.00979 16.9229 -4.91354 2.11285
lowerback 27.5903 -3.6063 4.16291
upperback 3.12613 -2.9161 3.80926
thorax -11.8145 -1.42142 3.02554
lowerneck -5.88423 -2.72388 -2.95575
upperneck -1.47306 -3.4683 1.40662
head 0.601524 -1.71705 0.844153
rclavicle 5.00937e-014 1.98785e-014
rhumerus 13.8297 10.5088 -44.0703
rradius 148.637
rwrist -24.7379
rhand -3.99482 -47.3317
rfingers 7.12502
rthumb 21.7589 -76.1287
lclavicle 5.00937e-014 1.98785e-014
lhumerus 19.2716 -35.1388 52.0027
lradius 139.276
lwrist 10.911
lhand -13.7864 -28.068
lfingers 7.12502
lthumb 12.3351 1.54811
rfemur -16.1718 8.20205 8.31484
rtibia 4.88018
rfoot -17.272 -16.635
rtoes -7.96994
lfemur -27.2234 8.2921 -18.7291
ltibia 24.8228
lfoot -14.6571 8.70283
ltoes -55.1755
511
root -0.585309 18.9119 5.01545 16.9751 -5.07228 2.11415
lowerback 27.5668 -3.58118 4.15568
upperback 3.1138 -2.89206 3.77533
thorax -11.8184 -1.41139 2.98109
lowerneck -6.00491 -2.70653 -2.95893
upperneck -1.47657 -3.44158 1.42436
head 0.620635 -1.70318 0.849513
rclavicle -3.81667e-014 -1.35174e-014
rhumerus 14.0162 10.1733 -44.4505
rradius 148.574
rwrist -24.1669
rhand -4.42638 -46.9617
rfingers 7.12502
rthumb 21.3445 -75.8062
lclavicle -3.81667e-014 -1.35174e-014
lhumerus 18.8508 -35.4394 51.8973
lradius 139.346
lwrist 11.5084
lhand -13.0849 -28.3728
lfingers 7.12502
lthumb 13.0114 1.20146
rfemur -16.0244 8.33427 8.23691
rtibia 4.39907
rfoot -17.1221 -16.775
rtoes -7.93173
lfemur -27.2459 8.39725 -18.7877
ltibia 24.8143
lfoot -14.6828 8.77625
ltoes -55.1875
512
root -0.581725 18.9132 5.0267 17.0583 -5.27363 2.09151
lowerback 27.4538 -3.49101 4.17698
upperback 3.08187 -2.78103 3.74887
thorax -11.8004 -1.36351 2.89199
lowerneck -6.00701 -2.66631 -2.86626
upperneck -1.54839 -3.3934 1.33836
head 0.593573 -1.68008 0.808647
rclavicle -1.66979e-014 3.18055e-014
rhumerus 13.981 9.88824 -44.6666
rradius 148.472
rwrist -23.628
rhand -4.88066 -46.6398
rfingers 7.12502
rthumb 20.9081 -75.533
lclavicle -1.66979e-014 3.18055e-014
lhumerus 18.3807 -35.748 52.1013
lradius 139.42
lwrist 11.636
lhand -13.1939 -28.5752
lfingers 7.12502
lthumb 12.9063 1.00567
rfemur -15.8789 8.50722 8.1631
rtibia 3.86113
rfoot -16.9245 -16.9592
rtoes -8.14716
lfemur -27.2783 8.54688 -18.8305
ltibia 24.8094
lfoot -14.7046 8.80755
ltoes -55.1377
